<svg width="168" height="168" viewBox="0 0 168 168" fill="none" xmlns="http://www.w3.org/2000/svg">
<path d="M83.9199 0C61.663 1.54378e-05 40.3176 8.84156 24.5796 24.5796C8.84156 40.3176 1.54378e-05 61.663 0 83.9199C1.47361e-05 106.177 8.84156 127.522 24.5796 143.26C40.3176 158.998 61.663 167.84 83.9199 167.84C106.177 167.84 127.522 158.998 143.26 143.26C158.998 127.522 167.84 106.177 167.84 83.9199C167.84 61.663 158.998 40.3176 143.26 24.5796C127.522 8.84156 106.177 1.47361e-05 83.9199 0V0ZM83.9199 13.3144C122.915 13.3144 154.526 44.9254 154.526 83.9199C154.526 122.915 122.915 154.526 83.9199 154.526C44.9254 154.526 13.3139 122.915 13.3139 83.9199C13.3139 44.9254 44.9254 13.3144 83.9199 13.3144ZM86.4645 26.4501C86.1612 26.4486 85.8557 26.4528 85.5488 26.4625C65.9047 27.0842 51.0905 47.0322 46.283 69.0532C53.8774 53.9877 68.8567 42.2342 84.4858 41.844C99.3575 41.4726 111.977 48.9838 122.084 65.888C117.38 48.601 105.57 26.5421 86.4645 26.4501ZM84.8853 46.0566C67.8401 45.9731 42.9322 61.8532 42.8548 101.885C42.8305 114.428 53.0104 107.438 63.8457 116.154C52.9234 104.691 45.1935 106.117 58.4445 73.041C66.0689 50.2915 99.9202 49.5988 110.003 70.8112C123.811 109.141 118.736 102.699 105.008 116.309C116.232 110.021 125.33 114.424 125.331 103.775C125.364 56.9945 101.93 46.1402 84.8853 46.0566ZM38.0757 109.859L33.1551 120.396C74.7837 137.223 112.221 131.987 131.195 110.12C106.935 124.715 70.0913 127.234 38.0757 109.859ZM130.786 117.917C104.168 138.403 79.8746 138.217 30.3258 122.732C65.1395 142.793 91.7056 151.211 137.514 124.679L130.786 117.917Z" fill="url(#paint0_linear_1_122)"/>
<defs>
<linearGradient id="paint0_linear_1_122" x1="83.9199" y1="0" x2="83.9199" y2="167.84" gradientUnits="userSpaceOnUse">
<stop stop-color="#4FCDA5"/>
<stop offset="1" stop-color="#94ABDD"/>
</linearGradient>
</defs>
</svg>
